<svg xmlns="http://www.w3.org/2000/svg" xmlns:xlink="http://www.w3.org/1999/xlink"><symbol id="icon_facebook" viewBox="0 0 11 22"><path d="M8.538 4.187H10.4V.943A24.401 24.401 0 007.687.8C5.002.8 3.163 2.489 3.163 5.593V8.45H.2v3.626h2.963V21.2h3.632v-9.123h2.843l.452-3.626H6.795V5.953c0-1.049.283-1.766 1.743-1.766z"/></symbol><symbol id="icon_insta" viewBox="0 0 20 20">
<path d="M10 6.3999C8.01488 6.3999 6.40002 8.01476 6.40002 9.9999C6.40002 11.985 8.01488 13.5999 10 13.5999C11.9852 13.5999 13.6 11.985 13.6 9.9999C13.6 8.01476 11.9852 6.3999 10 6.3999Z"/>
<path fill-rule="evenodd" clip-rule="evenodd" d="M0.400024 15.6106V4.3892C0.400024 2.18596 2.18608 0.399902 4.38932 0.399902H15.6107C17.814 0.399902 19.6 2.18596 19.6 4.3892V15.6106C19.6 17.8138 17.814 19.5999 15.6107 19.5999H4.38932C2.18608 19.5999 0.400024 17.8138 0.400024 15.6106ZM4.55995 7.96611C2.926 12.7018 7.29815 17.0739 12.0338 15.44C13.63 14.8894 14.8896 13.6299 15.4401 12.0338C17.074 7.29803 12.7019 2.92588 7.96612 4.55982C6.37002 5.11037 5.11049 6.37002 4.55995 7.96611ZM16 4.59993C16.6628 4.59993 17.2 4.06268 17.2 3.39993C17.2 2.73719 16.6628 2.19993 16 2.19993C15.3373 2.19993 14.8 2.73719 14.8 3.39993C14.8 4.06268 15.3373 4.59993 16 4.59993Z"/>
</symbol><symbol id="icon_left" viewBox="0 0 11 18"><path opacity=".2" d="M10 1.5L2 9l8 7.5" stroke="#484848" stroke-width="2"/></symbol><symbol id="icon_play" viewBox="0 0 15 19"><path d="M15 9.5L0 19V0L15 9.5z"/></symbol><symbol id="icon_right" viewBox="0 0 11 18"><path opacity=".2" d="M1 16.5L9 9 1 1.5" stroke="#484848" stroke-width="2"/></symbol><symbol id="icon_telegram" viewBox="0 0 22 18"><path d="M8.633 11.863l-.364 5.026c.52 0 .746-.22 1.016-.483l2.441-2.291 5.059 3.637c.927.508 1.581.24 1.831-.838l3.32-15.275h.001c.295-1.347-.495-1.874-1.4-1.543L1.022 7.432C-.31 7.939-.29 8.668.795 8.999l4.99 1.523 11.59-7.12c.545-.354 1.04-.158.633.197l-9.375 8.264z"/></symbol><symbol id="icon_twitter" viewBox="0 0 24 18"><path d="M23.077 2.13a9.47 9.47 0 01-2.617.718 4.516 4.516 0 001.998-2.51 9.076 9.076 0 01-2.88 1.1 4.54 4.54 0 00-7.856 3.106c0 .359.03.705.105 1.035C8.05 5.394 4.71 3.585 2.466.828a4.573 4.573 0 00-.622 2.296c0 1.573.81 2.967 2.017 3.774a4.485 4.485 0 01-2.052-.56v.05a4.563 4.563 0 003.639 4.463c-.37.101-.773.15-1.19.15-.291 0-.585-.017-.86-.078.588 1.799 2.258 3.121 4.243 3.164a9.125 9.125 0 01-5.63 1.937c-.373 0-.73-.017-1.088-.062A12.787 12.787 0 007.89 18c8.358 0 12.927-6.923 12.927-12.924 0-.2-.007-.395-.017-.587a9.061 9.061 0 002.277-2.358z"/></symbol><symbol id="icon_whatsapp" viewBox="0 0 20 20"><path d="M10.002 0h-.005C4.485 0 0 4.485 0 10c0 2.188.705 4.215 1.904 5.861L.658 19.576 4.5 18.347A9.913 9.913 0 0010.002 20C15.517 20 20 15.514 20 10S15.516 0 10.002 0zm5.82 14.121c-.242.681-1.2 1.246-1.963 1.412-.523.11-1.205.2-3.503-.753-2.938-1.217-4.831-4.204-4.978-4.397C5.236 10.188 4.19 8.8 4.19 7.366c0-1.435.729-2.133 1.022-2.433.242-.247.64-.36 1.023-.36.124 0 .235.007.335.012.294.013.441.03.635.494.241.581.829 2.016.899 2.163.071.148.142.348.042.542-.094.2-.176.288-.324.458-.147.17-.287.3-.434.483-.135.159-.288.329-.118.623.17.287.758 1.246 1.623 2.016 1.116.993 2.02 1.311 2.345 1.446.24.1.528.076.705-.111.223-.242.5-.642.78-1.035.2-.283.453-.318.718-.218.27.094 1.699.8 1.993.947.293.147.487.217.559.34.07.124.07.706-.172 1.388z"/></symbol></svg>